<svg width="24" height="24" viewBox="0 0 24 24" fill="none" xmlns="http://www.w3.org/2000/svg">
<path d="M14.6677 8.51147L18.15 5.12311C18.3605 4.9184 18.4796 4.65271 18.507 4.37842C18.5109 4.35736 18.5132 4.33575 18.5132 4.31342C18.5132 4.3114 18.5129 4.30957 18.5129 4.30756C18.5251 4.01367 18.4319 3.71539 18.2291 3.47607L15.6447 0.427002C15.4147 0.15564 15.0787 0 14.7231 0H9.33673C8.98114 0 8.64532 0.15564 8.41516 0.427002L8.03174 0.879272C7.90631 1.0274 7.92462 1.24933 8.07275 1.37476C8.22089 1.50037 8.44263 1.48206 8.56824 1.33392L8.95166 0.881653C9.04779 0.768127 9.18823 0.703125 9.33673 0.703125H11.3099L8.76837 3.96185H6.34314C6.35083 3.95142 6.35852 3.9408 6.36713 3.93073L7.51575 2.57556C7.64117 2.42743 7.62286 2.20569 7.47491 2.08008C7.32678 1.95447 7.10486 1.97296 6.97925 2.12091L5.83063 3.47607C5.62793 3.71539 5.53455 4.01385 5.547 4.30774C5.54681 4.30957 5.54663 4.31158 5.54663 4.31342C5.54663 4.33575 5.54901 4.35736 5.55286 4.37842C5.58032 4.65253 5.69934 4.91821 5.90973 5.12311L9.39203 8.51129C7.68585 9.11041 6.2124 10.2828 5.23956 11.8661C5.03778 11.6213 4.8717 11.3452 4.74884 11.0435C4.65015 10.8012 4.4176 10.6447 4.15594 10.6447C3.89447 10.6447 3.66174 10.8012 3.56323 11.0435C3.24884 11.816 2.65393 12.4235 1.88837 12.7544L1.74554 12.8159C1.51099 12.9174 1.35938 13.1479 1.35938 13.4035C1.35938 13.6591 1.51099 13.8898 1.74554 13.9911L1.88837 14.0528C2.65393 14.3835 3.24884 14.991 3.56323 15.7635C3.64984 15.9767 3.84027 16.1232 4.06274 16.1556C4.12939 20.4924 7.67743 24 12.03 24C13.9889 24 15.8734 23.2797 17.3361 21.9719C17.4809 21.8425 17.4933 21.6202 17.3639 21.4755C17.2344 21.3309 17.0121 21.3182 16.8675 21.4477C15.5338 22.6401 13.8157 23.2969 12.03 23.2969C8.02368 23.2969 4.76422 20.0374 4.76422 16.0311C4.76422 15.9256 4.76715 15.8181 4.77191 15.7106C5.09161 14.9636 5.67572 14.3758 6.42371 14.0528L6.56653 13.9911C6.80109 13.8898 6.9527 13.6591 6.9527 13.4035C6.9527 13.1479 6.80109 12.9174 6.56653 12.8159L6.42371 12.7544C6.18439 12.6509 5.96155 12.5204 5.75903 12.3664C6.89465 10.4282 8.84088 9.13733 11.0319 8.83411C11.0343 8.83374 11.0367 8.83337 11.0391 8.83301C11.3646 8.78833 11.6955 8.76544 12.0298 8.76544C16.0362 8.76544 19.2957 12.0247 19.2957 16.0311C19.2957 17.5291 18.8416 18.9683 17.9822 20.1931C17.8709 20.352 17.9094 20.5714 18.0683 20.6829C18.1296 20.7259 18.2001 20.7466 18.2699 20.7466C18.3805 20.7466 18.4894 20.6944 18.5579 20.5968C19.5005 19.253 19.9986 17.6743 19.9986 16.0311C19.9988 12.5612 17.7693 9.60278 14.6677 8.51147V8.51147ZM4.21436 11.3084V11.3088C4.21436 11.3086 4.21436 11.3086 4.21436 11.3084ZM6.14502 13.3998L6.15344 13.4035L6.14502 13.4072C5.25439 13.7919 4.5531 14.4827 4.15594 15.3624C3.75897 14.4827 3.05768 13.7919 2.16705 13.4072L2.15845 13.4035L2.16705 13.3998C3.05768 13.0151 3.75897 12.3243 4.15594 11.4448C4.55292 12.3243 5.25439 13.0151 6.14502 13.3998ZM14.7231 0.703125C14.8718 0.703125 15.0121 0.768127 15.1082 0.881653L17.6927 3.93073C17.7014 3.9408 17.709 3.95142 17.7166 3.96185H15.2915L12.75 0.703125H14.7231ZM12.03 0.923218L14.3998 3.96185H9.65991L12.03 0.923218ZM10.1658 8.28333L6.44733 4.66498H8.72131L10.4703 8.21667C10.3683 8.23718 10.2667 8.25897 10.1658 8.28333ZM12.03 8.06232C11.7506 8.06232 11.4734 8.07697 11.1995 8.10571L9.505 4.66516H14.5549L12.8606 8.10553C12.5874 8.07697 12.3104 8.06232 12.03 8.06232V8.06232ZM13.5899 8.21594L15.3387 4.66498H17.6125L13.8942 8.28296C13.7935 8.25879 13.6921 8.23645 13.5899 8.21594V8.21594ZM22.2638 7.31909L22.1371 7.26434C21.4666 6.97467 20.9458 6.44275 20.6706 5.76617C20.5768 5.53619 20.356 5.38751 20.1077 5.38751C19.8593 5.38751 19.6382 5.53619 19.5447 5.76617V5.76636C19.2695 6.44275 18.7487 6.97467 18.0782 7.26434L17.9515 7.31909C17.7286 7.41522 17.5847 7.63422 17.5847 7.87683C17.5847 8.11963 17.7286 8.33862 17.9515 8.43475L18.0782 8.4895C18.7487 8.77917 19.2695 9.3111 19.5447 9.98767C19.6382 10.2177 19.8593 10.3663 20.1077 10.3663C20.356 10.3663 20.5768 10.2177 20.6706 9.98767C20.9458 9.31128 21.4666 8.77917 22.1371 8.48969L22.2638 8.43494C22.4866 8.33862 22.6306 8.11963 22.6306 7.87701C22.6306 7.63422 22.4866 7.41522 22.2638 7.31909V7.31909ZM20.1077 9.52313C19.7571 8.79401 19.1697 8.21631 18.4307 7.87683C19.1697 7.53754 19.7571 6.95984 20.1077 6.23071C20.4582 6.95984 21.0456 7.53754 21.7844 7.87683C21.0456 8.21631 20.4582 8.79401 20.1077 9.52313ZM12.03 10.5262C8.99451 10.5262 6.52496 12.9957 6.52496 16.0311C6.52496 19.0666 8.99451 21.5361 12.03 21.5361C15.0654 21.5361 17.5349 19.0666 17.5349 16.0311C17.5349 12.9957 15.0654 10.5262 12.03 10.5262V10.5262ZM12.03 20.833C9.38214 20.833 7.22809 18.679 7.22809 16.0311C7.22809 13.3834 9.38214 11.2293 12.03 11.2293C14.6777 11.2293 16.8318 13.3834 16.8318 16.0311C16.8318 18.679 14.6777 20.833 12.03 20.833V20.833Z" fill="#718096"/>
</svg>
