<svg width="24" height="24" viewBox="0 0 24 24" fill="none" xmlns="http://www.w3.org/2000/svg">
<path d="M4.05872 9.56781V9.00879C4.05872 8.81451 3.90143 8.65723 3.70715 8.65723C3.51306 8.65723 3.35559 8.81451 3.35559 9.00879V9.56781C3.35559 9.7619 3.51306 9.91937 3.70715 9.91937C3.90143 9.91937 4.05872 9.7619 4.05872 9.56781ZM23.3815 2.30933C23.2773 2.14545 23.0599 2.09729 22.8962 2.20148C22.7324 2.30566 22.6842 2.52301 22.7884 2.68671C23.1211 3.20947 23.2969 3.815 23.2969 4.43774C23.2969 6.3316 21.9842 7.95428 20.883 8.98206C19.8461 9.94977 18.6068 10.7523 17.6461 11.2328C17.645 11.2333 17.6437 11.2339 17.6424 11.2346C17.4305 11.3405 17.2322 11.4309 17.0528 11.5036C17.0065 11.5225 16.9552 11.5225 16.9087 11.5036C16.7362 11.4337 16.5377 11.3438 16.32 11.2352C16.3173 11.2337 16.3143 11.2324 16.3116 11.231C15.6422 10.8964 14.7913 10.3841 13.9418 9.71851C14.0059 9.39587 14.0385 9.07379 14.0385 8.75354C14.0385 6.77417 12.5819 5.12878 10.6844 4.83234C10.6718 4.69977 10.6648 4.56775 10.6648 4.43793C10.6648 2.63708 12.1298 1.17188 13.9307 1.17188C15.0509 1.17188 16.0803 1.73621 16.6846 2.68158C16.7492 2.78265 16.8609 2.84381 16.9808 2.84381C17.1008 2.84381 17.2125 2.78265 17.2769 2.68158C17.8812 1.73621 18.9108 1.17188 20.031 1.17188C20.6254 1.17188 21.2069 1.33301 21.7132 1.6377C21.8795 1.73785 22.0955 1.68439 22.1957 1.51794C22.2958 1.35168 22.2422 1.13562 22.0757 1.03546C21.4601 0.664673 20.7532 0.46875 20.031 0.46875C18.8384 0.46875 17.7307 0.994812 16.9808 1.89734C16.231 0.994812 15.123 0.46875 13.9307 0.46875C11.7422 0.46875 9.96167 2.24927 9.96167 4.43774C9.96167 4.55292 9.96643 4.66901 9.97485 4.78564C8.81854 4.81274 7.74921 5.33441 7.01917 6.21295C6.26935 5.31042 5.16156 4.78436 3.96918 4.78436C1.78052 4.78436 0 6.56488 0 8.75354C0 10.3546 0.815918 12.0114 2.35968 13.5445C2.49738 13.6813 2.71985 13.6805 2.85681 13.5428C2.99359 13.4052 2.99286 13.1825 2.85516 13.0457C1.07648 11.2791 0.703125 9.73645 0.703125 8.75354C0.703125 6.9527 2.16815 5.48749 3.96899 5.48749C5.08923 5.48749 6.11884 6.05182 6.72308 6.99719C6.78754 7.09827 6.89923 7.15942 7.01917 7.15942C7.1391 7.15942 7.25079 7.09827 7.31543 6.99719C7.91968 6.05182 8.9491 5.48749 10.0693 5.48749C10.1591 5.48749 10.2479 5.49207 10.3358 5.49921C10.3372 5.49939 10.3387 5.49957 10.3401 5.49957C12.0146 5.63782 13.3354 7.04388 13.3354 8.75354C13.3354 9.79871 12.9166 11.4357 10.9215 13.2977C9.88531 14.2648 8.64697 15.0668 7.68658 15.5475C7.68457 15.5484 7.68256 15.5493 7.68054 15.5504C7.46887 15.6562 7.27057 15.7465 7.09131 15.8192C7.0448 15.8381 6.99371 15.8381 6.9472 15.8192C6.28638 15.5513 5.18774 14.9632 4.08545 14.1163C3.93127 13.9979 3.71063 14.027 3.59253 14.1808C3.47424 14.3348 3.50299 14.5556 3.65698 14.6739C4.33063 15.1913 5.0733 15.6694 5.76727 16.038L5.53821 16.7917C5.47284 17.0067 5.54187 17.239 5.71362 17.3837C5.88574 17.5285 6.12653 17.5565 6.32721 17.4554L6.42279 17.4071L6.57898 17.5032C6.59125 17.5109 6.60388 17.5177 6.61652 17.5247C6.32703 20.8989 4.8349 21.5425 2.78943 22.4242C2.47229 22.5608 2.14471 22.702 1.80725 22.8593C1.63129 22.9413 1.55511 23.1504 1.63715 23.3264C1.69684 23.4543 1.82373 23.5296 1.95612 23.5296C2.00574 23.5296 2.05627 23.5188 2.10443 23.4965C2.43237 23.3436 2.75537 23.2044 3.06775 23.0698C5.17072 22.1635 6.99316 21.3774 7.31799 17.5726C7.36652 17.5541 7.41394 17.5312 7.45953 17.5032L7.61554 17.4071L7.7113 17.4554C7.91199 17.5565 8.15277 17.5285 8.32471 17.3837C8.49664 17.239 8.56549 17.0067 8.50012 16.7917L8.27087 16.0373C9.20068 15.5436 10.3601 14.7834 11.4012 13.8116C12.5552 12.7346 13.3445 11.5955 13.7413 10.4509C14.4423 10.9781 15.1364 11.4058 15.7293 11.7209L15.4999 12.4759C15.4345 12.6909 15.5034 12.9234 15.6753 13.0681C15.8472 13.2127 16.0878 13.2409 16.2885 13.1396L16.3843 13.0915L16.5405 13.1876C16.5476 13.192 16.5551 13.1959 16.5624 13.2001C16.3347 15.1529 15.5411 15.7234 14.46 16.4993C13.5694 17.1383 12.4611 17.9337 11.4241 19.6908C11.3254 19.8582 11.3811 20.0737 11.5483 20.1724C11.6043 20.2055 11.6658 20.2213 11.7266 20.2213C11.8469 20.2213 11.9641 20.1594 12.0297 20.0482C12.9913 18.4186 13.9894 17.7023 14.87 17.0706C16.0106 16.2521 17.001 15.5403 17.2628 13.2636C17.3174 13.244 17.3703 13.2188 17.421 13.1876L17.5772 13.0915L17.6728 13.1396C17.8735 13.2409 18.1143 13.2127 18.2862 13.0681C18.4581 12.9234 18.527 12.691 18.4616 12.4761L18.2324 11.7217C19.1624 11.228 20.3216 10.4678 21.3627 9.49603C23.0881 7.8858 24 6.13678 24 4.43774C24 3.68097 23.7861 2.94489 23.3815 2.30933ZM7.31488 16.7666L7.09094 16.9045C7.04663 16.9318 6.9917 16.9318 6.94757 16.9045L6.72382 16.7666C6.59729 16.6888 6.44403 16.6655 6.30157 16.6987L6.40686 16.3521C6.50061 16.3942 6.59308 16.4344 6.68298 16.4709C6.79138 16.5148 6.90527 16.5368 7.01935 16.5368C7.13324 16.5368 7.24713 16.5148 7.35571 16.4709C7.4425 16.4355 7.53497 16.3958 7.63184 16.3522L7.73712 16.6987C7.59448 16.6655 7.44141 16.6888 7.31488 16.7666ZM17.2764 12.451L17.0526 12.5889C17.0083 12.6161 16.9534 12.6161 16.9091 12.5889L16.6853 12.451C16.5566 12.3719 16.4059 12.3484 16.2632 12.3825L16.3683 12.0364C16.4658 12.0804 16.5582 12.1203 16.6447 12.1553C16.7531 12.1992 16.8669 12.2212 16.9808 12.2212C17.0947 12.2212 17.2086 12.199 17.3172 12.1553C17.404 12.1199 17.4965 12.0802 17.5933 12.0366L17.6986 12.3831C17.5558 12.3499 17.4029 12.3732 17.2764 12.451ZM10.6827 9.56781V9.00879C10.6827 8.81451 10.5255 8.65723 10.3312 8.65723C10.1371 8.65723 9.97961 8.81451 9.97961 9.00879V9.56781C9.97961 9.7619 10.1371 9.91937 10.3312 9.91937C10.5255 9.91937 10.6827 9.7619 10.6827 9.56781ZM13.8585 4.98212V5.44208C13.8585 5.63635 14.0158 5.79364 14.2101 5.79364C14.4042 5.79364 14.5616 5.63635 14.5616 5.44208V4.98212C14.5616 4.78802 14.4042 4.63055 14.2101 4.63055C14.0158 4.63055 13.8585 4.78802 13.8585 4.98212ZM17.4463 5.23151C17.3287 5.36627 17.159 5.44373 16.9808 5.44373C16.8025 5.44373 16.6329 5.36646 16.5154 5.23151C16.3878 5.08521 16.1656 5.06982 16.0193 5.19745C15.8729 5.32507 15.8577 5.54718 15.9853 5.69348C16.2363 5.98151 16.5992 6.14685 16.9808 6.14685C17.3622 6.14685 17.7252 5.98169 17.9762 5.69348C18.1038 5.54718 18.0886 5.32507 17.9423 5.19745C17.7958 5.06982 17.5737 5.08521 17.4463 5.23151ZM8.42084 9.99554C8.42084 8.93408 7.43866 8.93408 7.01917 8.93408C6.59985 8.93408 5.61768 8.93408 5.61768 9.99554C5.61768 10.8373 6.24646 11.5221 7.01917 11.5221C7.79205 11.5221 8.42084 10.8373 8.42084 9.99554ZM6.3208 9.99554C6.3208 9.75696 6.3208 9.63721 7.01917 9.63721C7.71771 9.63721 7.71771 9.75696 7.71771 9.99554C7.71771 10.4496 7.40442 10.819 7.01917 10.819C6.63409 10.819 6.3208 10.4496 6.3208 9.99554ZM19.7514 4.63055C19.5573 4.63055 19.3998 4.78802 19.3998 4.98212V5.44208C19.3998 5.63635 19.5573 5.79364 19.7514 5.79364C19.9457 5.79364 20.103 5.63635 20.103 5.44208V4.98212C20.103 4.78802 19.9457 4.63055 19.7514 4.63055Z" fill="#718096"/>
</svg>
