<svg width="24" height="24" viewBox="0 0 24 24" fill="none" xmlns="http://www.w3.org/2000/svg">
<g clip-path="url(#clip0)">
<path d="M11.9961 9.217C8.87016 9.217 6.32683 11.7603 6.32683 14.8863C6.32683 18.0123 8.87016 20.5554 11.9961 20.5554C15.1221 20.5554 17.6653 18.0123 17.6653 14.8863C17.6653 11.7601 15.1221 9.217 11.9961 9.217ZM11.9961 19.8523C9.2578 19.8523 7.02996 17.6246 7.02996 14.8863C7.02996 12.148 9.2578 9.92012 11.9961 9.92012C14.7345 9.92012 16.9621 12.148 16.9621 14.8863C16.9621 17.6246 14.7345 19.8523 11.9961 19.8523ZM13.7594 11.8588C13.0838 11.8588 12.4522 12.1333 11.9961 12.6103C11.54 12.1333 10.9085 11.8588 10.2326 11.8588C8.88554 11.8588 7.78966 12.9547 7.78966 14.3018C7.78966 15.3261 8.33311 16.3749 9.36143 17.3346C10.1995 18.1168 11.1698 18.6672 11.746 18.9009C11.8266 18.9337 11.9114 18.9499 11.9961 18.9499C12.0809 18.9499 12.1657 18.9337 12.2464 18.9009C12.8225 18.6672 13.7928 18.1168 14.6308 17.3346C15.6592 16.3749 16.2026 15.3261 16.2026 14.3018C16.2024 12.9547 15.1065 11.8588 13.7594 11.8588ZM11.9961 18.2437C10.8878 17.7887 8.49278 16.1798 8.49278 14.3018C8.49278 13.3424 9.27336 12.562 10.2326 12.562C10.8294 12.562 11.378 12.8626 11.6999 13.3663C11.7645 13.4672 11.8762 13.5286 11.9961 13.5286C12.1161 13.5286 12.2278 13.4672 12.2922 13.3663C12.6143 12.8626 13.1627 12.562 13.7594 12.562C14.7189 12.562 15.4993 13.3424 15.4993 14.3018C15.4993 16.1798 13.1043 17.7887 11.9961 18.2437ZM13.9035 13.8944C13.7093 13.8944 13.552 14.0519 13.552 14.246V14.5626C13.552 14.7568 13.7093 14.9141 13.9035 14.9141C14.0976 14.9141 14.2551 14.7568 14.2551 14.5626V14.246C14.2551 14.0519 14.0976 13.8944 13.9035 13.8944ZM10.0887 13.8944C9.89464 13.8944 9.73716 14.0519 9.73716 14.246V14.5626C9.73716 14.7568 9.89464 14.9141 10.0887 14.9141C10.2828 14.9141 10.4403 14.7568 10.4403 14.5626V14.246C10.4403 14.0519 10.2828 13.8944 10.0887 13.8944ZM23.5744 8.95662L23.3996 8.881C22.7666 8.60762 22.2279 8.18227 21.8212 7.64669V6.60134C21.8212 5.26394 20.7332 4.17593 19.3958 4.17593H19.188C19.0116 2.49026 17.5825 1.17191 15.8509 1.17191C14.1194 1.17191 12.6903 2.49026 12.514 4.17593H11.4783C11.302 2.49026 9.87285 1.17191 8.14122 1.17191C6.40978 1.17191 4.98064 2.49026 4.80431 4.17593H4.59649C3.70623 4.17593 2.88922 4.66226 2.46386 5.44503C2.37121 5.61568 2.43438 5.829 2.60504 5.92165C2.65832 5.95077 2.71582 5.9645 2.77258 5.9645C2.89727 5.96432 3.01812 5.89785 3.08166 5.78066C3.38378 5.22457 3.96423 4.87905 4.5963 4.87905H9.45866C9.30321 5.46096 8.77165 5.89107 8.14122 5.89107C7.59209 5.89107 7.14531 6.33785 7.14531 6.88698C7.14531 7.43611 7.59209 7.88307 8.14122 7.88307C9.87266 7.88307 11.302 6.56472 11.4783 4.87905H17.1683C17.0128 5.46096 16.4813 5.89107 15.8509 5.89107C15.3017 5.89107 14.855 6.33785 14.855 6.88698C14.855 7.43611 15.3017 7.88307 15.8509 7.88307C17.5825 7.88307 19.0116 6.56472 19.188 4.87905H19.3958C20.3023 4.87905 21.047 5.58346 21.1128 6.47353C20.9875 6.36513 20.8255 6.30196 20.6515 6.30196C20.3635 6.30196 20.1071 6.47445 19.9986 6.74123C19.7862 7.26326 19.4705 7.72432 19.075 8.10372H2.8742V7.20778C2.8742 7.01369 2.71673 6.85622 2.52264 6.85622C2.32836 6.85622 2.17108 7.01369 2.17108 7.20778V15.4537C1.8208 16.1323 1.25189 16.6655 0.542724 16.9719L0.393676 17.0361C0.154541 17.1394 0 17.3745 0 17.6351C0 17.8958 0.154541 18.1309 0.393859 18.2342L0.542724 18.2985C1.34527 18.6451 1.96875 19.2819 2.29815 20.0918C2.32873 20.1665 2.37194 20.2331 2.42449 20.2899C2.83264 21.1104 3.67748 21.6368 4.59649 21.6368H18.281C18.4909 21.8809 18.6626 22.1596 18.7873 22.4659C18.8838 22.7034 19.112 22.8569 19.3683 22.8569H19.3685C19.6247 22.8569 19.8528 22.7034 19.9495 22.4661C20.2485 21.7311 20.8143 21.1533 21.5425 20.8387L21.6789 20.7797C21.9089 20.6805 22.0576 20.4545 22.0576 20.2039C22.0576 19.9904 21.9494 19.795 21.775 19.6802C21.8056 19.5262 21.8212 19.3693 21.8212 19.2114V18.692C21.8212 18.4979 21.6637 18.3404 21.4696 18.3404C21.2755 18.3404 21.1181 18.4979 21.1181 18.692V19.2114C21.1181 19.2546 21.1162 19.2977 21.1129 19.3405C20.5922 19.0082 20.1866 18.5246 19.9495 17.9418C19.8528 17.7043 19.6247 17.5508 19.3683 17.5508C19.112 17.5508 18.8838 17.7043 18.7873 17.9418C18.4883 18.6766 17.9225 19.2545 17.1941 19.569L17.0577 19.628C16.8277 19.7272 16.6792 19.9534 16.6792 20.2039C16.6792 20.4545 16.8277 20.6805 17.0577 20.7797L17.1941 20.8387C17.2617 20.868 17.3274 20.9002 17.3921 20.9337H4.59649C4.09917 20.9337 3.63281 20.7165 3.31054 20.3555C3.3955 20.2873 3.46398 20.1976 3.50701 20.0918C3.8366 19.2819 4.46007 18.6451 5.26262 18.2985L5.41149 18.2342C5.65062 18.1309 5.80517 17.8958 5.80517 17.6353C5.80517 17.3747 5.65062 17.1394 5.41149 17.0361L5.26244 16.9719C4.45989 16.6252 3.83642 15.9884 3.50701 15.1787C3.40649 14.9317 3.16937 14.772 2.90258 14.772C2.89306 14.772 2.88354 14.7728 2.87402 14.7731V8.80684H18.0646C18.0117 8.83266 17.9582 8.85756 17.9038 8.881L17.729 8.95662C17.4664 9.06996 17.3034 9.31789 17.3034 9.6039C17.3034 9.88972 17.4664 10.1378 17.729 10.2512L17.9038 10.3268C18.8615 10.7404 19.6054 11.5003 19.9986 12.4664C20.1071 12.7333 20.3635 12.9058 20.6517 12.9058C20.828 12.9058 20.9923 12.841 21.1181 12.7299V17.0435C21.1181 17.2377 21.2755 17.395 21.4696 17.395C21.6639 17.395 21.8212 17.2377 21.8212 17.0435V11.5609C22.2279 11.0255 22.7666 10.6 23.3996 10.3266L23.5744 10.2512C23.837 10.1378 24 9.88972 24 9.6039C24 9.31789 23.837 9.06996 23.5744 8.95662ZM6.82396 4.17593C6.97942 3.59402 7.51097 3.16391 8.14122 3.16391C8.77165 3.16391 9.30321 3.59402 9.45866 4.17593H6.82396ZM8.14122 7.17995C7.97972 7.17995 7.84844 7.04848 7.84844 6.88698C7.84844 6.72548 7.97972 6.5942 8.14122 6.5942C9.28087 6.5942 10.2079 5.66714 10.2079 4.52749C10.2079 3.38803 9.28087 2.46078 8.14122 2.46078C7.12169 2.46078 6.27263 3.20327 6.10509 4.17593H5.51293C5.68541 2.87918 6.79796 1.87503 8.14122 1.87503C9.60386 1.87503 10.7937 3.06503 10.7937 4.52749C10.7937 5.99013 9.60386 7.17995 8.14122 7.17995ZM14.5336 4.17593C14.6891 3.59402 15.2206 3.16391 15.851 3.16391C16.4813 3.16391 17.0128 3.59402 17.1683 4.17593H14.5336ZM15.8509 7.17995C15.6895 7.17995 15.5581 7.04848 15.5581 6.88698C15.5581 6.72548 15.6895 6.5942 15.8509 6.5942C16.99 6.5942 17.9167 5.66805 17.9176 4.52932C17.9176 4.52877 17.9176 4.52804 17.9176 4.52749C17.9176 4.52694 17.9176 4.52621 17.9176 4.52566C17.9167 3.38693 16.99 2.46078 15.8509 2.46078C14.8313 2.46078 13.9823 3.20327 13.8147 4.17593H13.2226C13.3951 2.87918 14.5076 1.87503 15.8509 1.87503C17.3135 1.87503 18.5033 3.06503 18.5033 4.52749C18.5033 5.99013 17.3135 7.17995 15.8509 7.17995ZM19.3683 18.3684C19.7483 19.19 20.4065 19.8373 21.2393 20.2039C20.4063 20.5706 19.7483 21.2177 19.3683 22.0395C18.9886 21.2177 18.3305 20.5706 17.4973 20.2039C18.3303 19.8373 18.9886 19.19 19.3683 18.3684ZM2.94946 15.4435V15.4437V15.4435ZM2.90258 15.5541C3.31274 16.483 4.04772 17.213 4.98376 17.6173L5.02514 17.6351L4.98376 17.653C4.04772 18.0573 3.31274 18.7872 2.90258 19.7162C2.49261 18.7872 1.75744 18.0573 0.82141 17.653L0.780211 17.6351L0.82141 17.6173C1.75744 17.213 2.49261 16.483 2.90258 15.5541ZM23.2957 9.60573L23.1207 9.68117C21.9928 10.1684 21.1166 11.0634 20.6552 12.2022C20.6535 12.2029 20.6497 12.2029 20.6499 12.2014C20.1868 11.0634 19.3106 10.1684 18.1827 9.68117L18.0069 9.60719C18.0064 9.60554 18.0064 9.60207 18.0077 9.60207L18.1827 9.52663C19.3106 9.03938 20.1868 8.14437 20.6499 7.00637L20.3243 6.8738L20.6482 7.00563C20.6499 7.0049 20.6535 7.0049 20.6535 7.00637C21.1166 8.14437 21.9929 9.03938 23.1209 9.52663L23.2965 9.60078C23.297 9.60207 23.297 9.60554 23.2957 9.60573ZM12.73 14.3117C12.5835 14.1841 12.3616 14.1993 12.234 14.3458C12.1739 14.4146 12.0871 14.4542 11.9961 14.4542C11.9051 14.4542 11.8183 14.4146 11.7583 14.3458C11.6307 14.1993 11.4085 14.1841 11.2622 14.3117C11.1159 14.4393 11.1006 14.6614 11.2282 14.8077C11.4219 15.0299 11.7017 15.1575 11.9961 15.1575C12.2904 15.1575 12.5704 15.0299 12.7641 14.8077C12.8915 14.6613 12.8763 14.4392 12.73 14.3117Z" fill="#718096"/>
</g>
<defs>
<clipPath id="clip0">
<rect width="24" height="24" fill="white"/>
</clipPath>
</defs>
</svg>
