<svg width="24" height="24" viewBox="0 0 24 24" fill="none" xmlns="http://www.w3.org/2000/svg">
<path d="M14.6032 7.35936C14.7973 7.35936 14.9548 7.20189 14.9548 7.0078V6.48979C14.9548 6.2957 14.7973 6.13823 14.6032 6.13823C14.4089 6.13823 14.2516 6.2957 14.2516 6.48979V7.00762C14.2516 7.20189 14.4089 7.35936 14.6032 7.35936ZM11.4831 7.75706C11.9 7.75706 12.2964 7.57652 12.5707 7.26158C12.6984 7.11528 12.6832 6.89317 12.5367 6.76573C12.3904 6.63811 12.1683 6.65331 12.0406 6.79979C11.9 6.96129 11.6968 7.05394 11.4831 7.05394C11.2696 7.05394 11.0663 6.96129 10.9257 6.79979C10.7981 6.65331 10.576 6.63811 10.4297 6.76573C10.2832 6.89317 10.268 7.11528 10.3956 7.26158C10.6699 7.57652 11.0663 7.75706 11.4831 7.75706ZM18.113 15.5605C18.307 15.5605 18.4645 15.4032 18.4645 15.2089V12.8369C18.4645 12.6427 18.307 12.4854 18.113 12.4854C17.9187 12.4854 17.7614 12.6427 17.7614 12.8369V15.2089C17.7614 15.4032 17.9187 15.5605 18.113 15.5605ZM20.7755 15.865L19.0982 17.5424C18.9609 17.6795 18.9609 17.9022 19.0982 18.0395C19.1669 18.1082 19.257 18.1424 19.3469 18.1424C19.4368 18.1424 19.5269 18.1082 19.5954 18.0395L21.2728 16.3623C21.4099 16.2249 21.4099 16.0023 21.2728 15.8651C21.1355 15.7278 20.9128 15.7278 20.7755 15.865ZM23.1097 15.3882L22.357 14.6354V9.47111C22.357 9.45939 22.3562 9.44749 22.3551 9.43577C22.3491 9.37608 22.3282 9.32078 22.2962 9.27372C22.2949 9.27189 22.2934 9.27025 22.2921 9.26841C22.2868 9.26091 22.2813 9.2534 22.2755 9.24626C22.2729 9.24315 22.27 9.2404 22.2672 9.23729C22.2623 9.23179 22.2574 9.22612 22.252 9.22099C22.2517 9.22044 22.2511 9.21989 22.2506 9.21934L18.7004 5.76012V5.7354C18.7004 4.96709 18.0752 4.34215 17.3071 4.34215H17.245L13.7232 0.910765C13.1204 0.323547 12.3248 0 11.4831 0C10.6414 0 9.84594 0.323547 9.24298 0.910948L8.65613 1.48279C8.51715 1.61828 8.51422 1.84076 8.64972 1.97973C8.78521 2.11889 9.00769 2.12182 9.14685 1.98632L9.7337 1.41449C10.2045 0.955809 10.8257 0.703124 11.4831 0.703124C12.1404 0.703124 12.7617 0.955809 13.2325 1.41449L16.2374 4.34215H6.72876L7.94897 3.15325C8.08813 3.01776 8.09106 2.79528 7.95556 2.65612C7.82007 2.51715 7.59741 2.51422 7.45843 2.64971L5.72132 4.34215H5.65924C4.89112 4.34215 4.266 4.96709 4.266 5.7354V5.76012L0.715587 9.21934C0.715038 9.21989 0.714672 9.22044 0.714123 9.22099C0.708813 9.22612 0.703869 9.23179 0.698925 9.23729C0.696178 9.2404 0.693432 9.24315 0.690868 9.24644C0.684826 9.2534 0.679516 9.26091 0.674023 9.26841C0.672741 9.27025 0.671459 9.27189 0.670177 9.27372C0.638134 9.32078 0.617077 9.37608 0.611217 9.43596C0.609936 9.44749 0.609386 9.45939 0.609386 9.47129V21.6491C0.609386 22.3573 0.924693 22.9931 1.42182 23.4245C1.43171 23.4342 1.44215 23.4429 1.45295 23.4514C1.86146 23.7936 2.38715 24 2.96046 24H20.0059C20.5792 24 21.1051 23.7934 21.5134 23.4514C21.5242 23.4429 21.5345 23.4342 21.5443 23.4245C22.0415 22.9931 22.357 22.3575 22.357 21.6491V21.3609C22.357 21.1668 22.1995 21.0093 22.0054 21.0093C21.8111 21.0093 21.6538 21.1668 21.6538 21.3609V21.6491C21.6538 22.0578 21.5039 22.4318 21.2567 22.72L13.9578 17.8029L16.0571 15.7575V16.1024C16.0571 16.6849 16.5148 17.1624 17.0894 17.1947C16.8471 17.6131 16.9037 18.1585 17.2613 18.5163L18.6214 19.8764C18.8348 20.0897 19.1149 20.1963 19.3951 20.1963C19.6752 20.1963 19.9555 20.0896 20.1687 19.8764L21.6538 18.3914V19.7016C21.6538 19.8957 21.8111 20.0531 22.0054 20.0531C22.1995 20.0531 22.357 19.8957 22.357 19.7016V17.6883L23.1097 16.9354C23.5363 16.5089 23.5363 15.8148 23.1097 15.3882ZM20.154 11.7658L21.6538 10.3046V13.9436C21.2246 13.6043 20.5984 13.6322 20.2024 14.028L20.1687 14.0617V11.9434C20.1687 11.883 20.1635 11.8236 20.154 11.7658ZM18.7002 6.74175L21.5015 9.47111L19.8021 11.1271C19.6086 10.9544 19.3537 10.8493 19.0746 10.8493H18.7002V6.74175ZM4.266 6.74175V12.2007L1.46467 9.47129L4.266 6.74175ZM1.31251 21.6491V10.3046L9.00842 17.8029L1.70967 22.72C1.46247 22.4318 1.31251 22.0578 1.31251 21.6491ZM20.6557 23.163C20.4562 23.249 20.2366 23.2968 20.0059 23.2968H2.96046C2.72974 23.2968 2.51002 23.249 2.31062 23.163L9.52294 18.3043L11.2377 19.9751C11.306 20.0416 11.3946 20.0747 11.4831 20.0747C11.5717 20.0747 11.6601 20.0416 11.7284 19.9751L13.4434 18.3041L20.6557 23.163ZM16.0571 11.9434V14.7758L13.1578 17.6008C13.157 17.6013 13.1565 17.6021 13.1558 17.6028L11.4831 19.2324L9.81079 17.603C9.80987 17.6023 9.80895 17.6013 9.80822 17.6006L4.96912 12.8857V5.7354C4.96912 5.35491 5.27875 5.04528 5.65924 5.04528H17.3069C17.6876 5.04528 17.997 5.35491 17.997 5.7354V10.8493H17.1513C16.548 10.8493 16.0571 11.3401 16.0571 11.9434ZM17.1513 16.4934C16.9356 16.4934 16.7602 16.318 16.7602 16.1024V11.9434C16.7602 11.7279 16.9356 11.5525 17.1513 11.5525H19.0746C19.2903 11.5525 19.4656 11.7279 19.4656 11.9434V14.7649L17.737 16.4936H17.1513V16.4934ZM22.6126 16.4383L19.6715 19.3793C19.519 19.5316 19.2711 19.5316 19.1186 19.3793L17.7585 18.0192C17.6061 17.8667 17.6061 17.6187 17.7585 17.4662L20.6995 14.5254C20.7733 14.4514 20.8714 14.4107 20.976 14.4107C21.0804 14.4107 21.1785 14.4514 21.2525 14.5254L22.6124 15.8853C22.7649 16.0378 22.7649 16.2859 22.6126 16.4383ZM15.0782 9.70146H7.888C7.69391 9.70146 7.53644 9.85893 7.53644 10.053C7.53644 10.2471 7.69391 10.4046 7.888 10.4046H15.0782C15.2723 10.4046 15.4297 10.2471 15.4297 10.053C15.4297 9.85893 15.2723 9.70146 15.0782 9.70146ZM12.6304 12.7668C12.1992 12.7668 11.7936 12.9263 11.4831 13.2074C11.1727 12.9263 10.7671 12.7668 10.3357 12.7668C9.39147 12.7668 8.62335 13.5349 8.62335 14.4792C8.62335 16.1371 10.5864 17.3064 11.2743 17.5854C11.3415 17.6127 11.4124 17.6264 11.4831 17.6264C11.5539 17.6264 11.6246 17.6127 11.692 17.5854C12.3798 17.3065 14.3428 16.1371 14.3428 14.4792C14.3428 13.5349 13.5747 12.7668 12.6304 12.7668ZM11.4831 16.9107C10.7681 16.6007 9.32647 15.6143 9.32647 14.4792C9.32647 13.9228 9.77929 13.4699 10.3357 13.4699C10.682 13.4699 11.0001 13.6444 11.187 13.9367C11.2515 14.0378 11.3632 14.0989 11.4831 14.0989C11.603 14.0989 11.7147 14.0378 11.7793 13.9367C11.9661 13.6444 12.2844 13.4699 12.6304 13.4699C13.1871 13.4699 13.6397 13.9228 13.6397 14.4792C13.6397 15.6143 12.1981 16.6007 11.4831 16.9107ZM15.0782 11.2351H7.888C7.69391 11.2351 7.53644 11.3926 7.53644 11.5867C7.53644 11.781 7.69391 11.9383 7.888 11.9383H15.0782C15.2723 11.9383 15.4297 11.781 15.4297 11.5867C15.4297 11.3926 15.2723 11.2351 15.0782 11.2351ZM8.36316 7.35936C8.55725 7.35936 8.71472 7.20189 8.71472 7.0078V6.48979C8.71472 6.2957 8.55725 6.13823 8.36316 6.13823C8.16906 6.13823 8.01159 6.2957 8.01159 6.48979V7.00762C8.01159 7.20189 8.16906 7.35936 8.36316 7.35936Z" fill="#718096"/>
</svg>
