<svg width="24" height="24" viewBox="0 0 24 24" fill="none" xmlns="http://www.w3.org/2000/svg">
<g clip-path="url(#clip0)">
<path d="M23.9934 21.4164C23.8718 20.6305 23.3135 20.0179 22.5851 19.8058V9.66177H22.7996C23.4261 9.66177 23.9359 9.15201 23.9359 8.52524V7.6749C23.9359 7.04831 23.4261 6.53854 22.7996 6.53854H19.3273V4.43539H19.4116C19.842 4.43539 20.1923 4.08511 20.1923 3.65445V2.74973C20.1923 2.31906 19.842 1.96878 19.4116 1.96878H15.308C14.8773 1.96878 14.527 2.31906 14.527 2.74973V3.65445C14.527 4.08511 14.8775 4.43539 15.308 4.43539H15.3922V6.53854H5.37652C5.18243 6.53854 5.02496 6.69583 5.02496 6.89011C5.02496 7.0842 5.18243 7.24167 5.37652 7.24167H22.7996C23.0385 7.24167 23.2328 7.43594 23.2328 7.6749V8.52524C23.2328 8.76419 23.0385 8.95865 22.7996 8.95865H22.2345C22.2341 8.95865 22.2338 8.95865 22.2336 8.95865C22.2332 8.95865 22.2328 8.95865 22.2327 8.95865H1.76751C1.76714 8.95865 1.76678 8.95865 1.76659 8.95865C1.76623 8.95865 1.76586 8.95865 1.76568 8.95865H1.20043C0.96148 8.95865 0.767205 8.76419 0.767205 8.52524V7.6749C0.767205 7.43594 0.96148 7.24167 1.20043 7.24167H3.7163C3.91058 7.24167 4.06786 7.0842 4.06786 6.89011C4.06786 6.69583 3.91058 6.53854 3.7163 6.53854H1.20043C0.573846 6.53854 0.0640799 7.04831 0.0640799 7.6749V8.52524C0.0640799 9.15201 0.573846 9.66177 1.20043 9.66177H1.41503V19.437C0.65313 19.8086 0.10125 20.55 0.00328882 21.4441C-0.0141062 21.6041 0.0375295 21.7649 0.145379 21.885C0.253777 22.0058 0.408867 22.0752 0.571099 22.0752H21.1056C21.2999 22.0752 21.4572 21.9179 21.4572 21.7237C21.4572 21.5294 21.2999 21.3721 21.1056 21.3721H17.8665C18.0315 20.5135 18.7835 19.8831 19.6738 19.8831C20.1892 19.8831 20.6845 20.1017 21.0326 20.4826C21.1381 20.5979 21.3071 20.6298 21.4473 20.5608C21.626 20.4729 21.8181 20.4284 22.0182 20.4284C22.5992 20.4284 23.1103 20.8246 23.2654 21.3721H22.7248C22.5306 21.3721 22.3733 21.5294 22.3733 21.7237C22.3733 21.9179 22.5306 22.0752 22.7248 22.0752H23.4291C23.5957 22.0752 23.7537 22.0025 23.8623 21.876C23.9711 21.7491 24.0189 21.5816 23.9934 21.4164ZM15.308 3.73227C15.2651 3.73227 15.2302 3.69748 15.2302 3.65445V2.74973C15.2302 2.70688 15.2651 2.67191 15.308 2.67191H19.4114C19.4542 2.67191 19.4892 2.70688 19.4892 2.74973V3.65445C19.4892 3.69748 19.4542 3.73227 19.4114 3.73227H15.308ZM18.6242 6.53854H16.0953V4.43539H18.6242V6.53854ZM0.724724 21.3721C0.846673 20.7373 1.2896 20.2275 1.87188 20.0049C1.88378 20.001 1.89532 19.9966 1.90667 19.9917C2.10223 19.9214 2.3128 19.8831 2.53179 19.8831C3.04723 19.8831 3.54253 20.1015 3.89062 20.4826C3.99609 20.5979 4.16509 20.63 4.30554 20.5608C4.48406 20.4729 4.67614 20.4282 4.87646 20.4282C5.45727 20.4282 5.96832 20.8244 6.12341 21.3721H0.724724ZM15.1049 21.3721H8.89507V20.6221C8.89507 20.4846 9.00677 20.3729 9.14428 20.3729H14.8557C14.9932 20.3729 15.1049 20.4846 15.1049 20.6221V21.3721ZM9.90069 19.6698V14.4612C9.90069 14.0946 10.1992 13.7961 10.5659 13.7961H13.4343C13.8008 13.7961 14.0993 14.0946 14.0993 14.4612V19.6698H9.90069ZM21.882 19.7302C21.7075 19.7417 21.5376 19.7754 21.3735 19.8316C20.909 19.4149 20.3022 19.1801 19.6738 19.1801C18.3981 19.1801 17.3282 20.1175 17.155 21.3721H15.808V20.6221C15.808 20.097 15.3809 19.6698 14.8557 19.6698H14.8024V14.4612C14.8024 13.7068 14.1887 13.093 13.4341 13.093H10.5657C9.81133 13.093 9.19756 13.7068 9.19756 14.4612V19.6698H9.14428C8.61913 19.6698 8.19177 20.097 8.19177 20.6221V21.3721H6.84338C6.674 20.4152 5.85424 19.7251 4.87628 19.7251C4.65398 19.7251 4.4381 19.7608 4.23138 19.8316C3.76702 19.4149 3.16021 19.18 2.53161 19.18C2.39098 19.18 2.25292 19.192 2.11797 19.214V9.66177H21.882V19.7302ZM10.6287 16.8049C10.4403 16.8049 10.2878 16.9576 10.2878 17.1458C10.2878 17.3343 10.4403 17.4868 10.6287 17.4868C10.8169 17.4868 10.9697 17.3343 10.9697 17.1458C10.9697 16.9576 10.8169 16.8049 10.6287 16.8049ZM16.4317 17.4225H20.2526C20.6393 17.4225 20.9538 17.1079 20.9538 16.7212V16.125C20.9538 15.7383 20.6393 15.4237 20.2526 15.4237H20.0627V12.6958C20.0627 12.25 19.7001 11.8874 19.2543 11.8874H17.43C16.9843 11.8874 16.6216 12.25 16.6216 12.6958V15.4237H16.4317C16.045 15.4237 15.7304 15.7383 15.7304 16.125V16.7212C15.7304 17.1079 16.045 17.4225 16.4317 17.4225ZM17.3247 12.6958C17.3247 12.6378 17.3719 12.5905 17.43 12.5905H19.2543C19.3123 12.5905 19.3596 12.6378 19.3596 12.6958V15.4239H17.3247V12.6958ZM16.968 16.1267C16.9697 16.1267 16.9715 16.127 16.9731 16.127C16.975 16.127 16.9768 16.1267 16.9784 16.1267L19.6794 16.1254C19.6899 16.1263 19.7005 16.127 19.7111 16.127C19.7221 16.127 19.7327 16.1263 19.7433 16.1254L20.2507 16.125L20.2526 16.7194L16.4335 16.7212L16.4315 16.127L16.968 16.1267ZM3.74743 17.4225H7.56829C7.95501 17.4225 8.26959 17.1079 8.26959 16.7212V16.125C8.26959 15.7383 7.95501 15.4237 7.56829 15.4237H7.37841V12.6958C7.37841 12.25 7.01568 11.8874 6.57 11.8874H4.74572C4.29986 11.8874 3.93731 12.25 3.93731 12.6958V15.4237H3.74725C3.36071 15.4237 3.04614 15.7383 3.04614 16.125V16.7212C3.04614 17.1079 3.36071 17.4225 3.74743 17.4225ZM4.64044 12.6958C4.64044 12.6378 4.68768 12.5905 4.74572 12.5905H6.57C6.62805 12.5905 6.67529 12.6378 6.67529 12.6958V15.4239H4.64044V12.6958ZM7.56646 16.127L7.56829 16.7194L3.74926 16.7212L3.74725 16.127H7.56646Z" fill="#718096"/>
</g>
<defs>
<clipPath id="clip0">
<rect width="24" height="24" fill="white"/>
</clipPath>
</defs>
</svg>
